<?xml version="1.0" standalone="no"?><!DOCTYPE svg PUBLIC "-//W3C//DTD SVG 1.1//EN" "http://www.w3.org/Graphics/SVG/1.1/DTD/svg11.dtd"><svg t="1483792388738" class="icon" style="" viewBox="0 0 1024 1024" version="1.1" xmlns="http://www.w3.org/2000/svg" p-id="4998" xmlns:xlink="http://www.w3.org/1999/xlink" width="32" height="32"><defs><style type="text/css"></style></defs><path d="M930.48939 1010.199736 93.510573 1010.199736c-44.024374 0-79.710936-35.686562-79.710936-79.710936L13.799637 93.5112c0-44.024374 35.686562-79.710936 79.710936-79.710936l836.978817 0c44.024374 0 79.710936 35.686562 79.710936 79.710936L1010.200326 930.490017C1010.200326 974.51439 974.513764 1010.199736 930.48939 1010.199736L930.48939 1010.199736zM823.995288 790.98037 669.562723 636.545373c39.463208-46.932573 63.313849-107.411201 63.313849-173.528646 0-149.040659-120.818596-269.86412-269.859255-269.86412-149.045524 0-269.86412 120.823461-269.86412 269.86412 0 149.045524 120.818596 269.868985 269.86412 269.868985 66.108931 0 126.596073-23.850641 173.518916-63.315065l154.433781 154.433781c9.122332 9.112601 23.902942 9.112601 33.025274 0C833.117619 814.883313 833.117619 800.102702 823.995288 790.98037L823.995288 790.98037zM463.0161 683.81608c-121.9449 0-220.793272-98.853237-220.793272-220.798138 0-121.940035 98.848372-220.793272 220.793272-220.793272 121.940035 0 220.789623 98.853237 220.789623 220.793272C683.80694 584.962843 584.956135 683.81608 463.0161 683.81608L463.0161 683.81608zM463.0161 683.81608" p-id="4999" fill="#d81e06"></path></svg>